<?xml version="1.0" encoding="UTF-8" standalone="no"?>
<!DOCTYPE svg PUBLIC "-//W3C//DTD SVG 1.1//EN" "http://www.w3.org/Graphics/SVG/1.1/DTD/svg11.dtd">
<!-- Created with Vectornator (http://vectornator.io/) -->
<svg height="100%" stroke-miterlimit="10" style="fill-rule:nonzero;clip-rule:evenodd;stroke-linecap:round;stroke-linejoin:round;" version="1.1" viewBox="0 0 31 31" width="100%" xml:space="preserve" xmlns="http://www.w3.org/2000/svg" xmlns:vectornator="http://vectornator.io" xmlns:xlink="http://www.w3.org/1999/xlink">
<defs/>
<clipPath id="ArtboardFrame">
<rect height="31" width="31" x="0" y="0"/>
</clipPath>
<g clip-path="url(#ArtboardFrame)" id="Untitled" vectornator:layerName="Untitled" visibility="hidden">
<path d="M15.4844-0.000742906C6.93685-0.000742906-0.015601 6.95171-0.015601 15.4993C-0.015601 24.0469 6.93685 30.9993 15.4844 30.9993C24.032 30.9993 30.9844 24.0469 30.9844 15.4993C30.9844 6.95171 24.032-0.000742906 15.4844-0.000742906ZM15.4844 1.06823C23.4411 1.06823 29.9154 7.54257 29.9154 15.4993C29.9154 23.456 23.4411 29.9303 15.4844 29.9303C7.52771 29.9303 1.05337 23.456 1.05337 15.4993C1.05337 7.54257 7.52771 1.06823 15.4844 1.06823ZM15.2506 3.21033C12.1 3.27297 9.04973 4.54863 6.7907 6.80556C4.46904 9.12931 3.1913 12.2152 3.1913 15.4993C3.1913 18.7834 4.46904 21.8692 6.7907 24.193C6.8951 24.2953 7.03289 24.3496 7.1686 24.3496C7.3064 24.3496 7.44419 24.2953 7.54858 24.193C7.75737 23.9821 7.75737 23.646 7.54858 23.4351C5.42736 21.316 4.26026 18.4974 4.26026 15.4993C4.26026 12.5012 5.42736 9.68258 7.54858 7.56344C7.97465 7.13701 8.43165 6.74905 8.91399 6.40135C11.3034 4.67897 14.3146 3.94459 17.2695 4.41709C17.5618 4.4672 17.8332 4.26468 17.8812 3.97448C17.9272 3.68218 17.7288 3.40659 17.4386 3.36066C16.7079 3.24374 15.9771 3.19363 15.2506 3.21033ZM19.5786 3.94733C19.3698 3.95569 19.1778 4.08722 19.1005 4.29391C18.9961 4.56951 19.136 4.8785 19.4116 4.98289C19.7937 5.12487 20.1716 5.2898 20.5348 5.47144C20.6121 5.51111 20.6935 5.5299 20.7749 5.5299C20.9712 5.5299 21.1591 5.42343 21.2531 5.23552C21.3867 4.97246 21.2802 4.65093 21.0171 4.51731C20.6184 4.31688 20.205 4.13733 19.7874 3.98074C19.7185 3.95569 19.6475 3.94525 19.5786 3.94733ZM22.6644 5.70528C22.5266 5.72198 22.3993 5.78879 22.3074 5.90571C22.1258 6.13746 22.1654 6.4736 22.3993 6.65524C22.7542 6.93501 23.0987 7.23983 23.4202 7.56344C25.5414 9.68258 26.7085 12.5012 26.7085 15.4993C26.7085 18.4974 25.5414 21.316 23.4202 23.4351C23.2114 23.646 23.2114 23.9821 23.4202 24.193C23.5246 24.2953 23.6624 24.3496 23.8002 24.3496C23.9359 24.3496 24.0737 24.2953 24.1781 24.193C26.4998 21.8692 27.7775 18.7834 27.7775 15.4993C27.7775 12.2152 26.4998 9.12931 24.1781 6.80556C23.8232 6.45272 23.4474 6.11867 23.059 5.81385C22.9421 5.72407 22.8001 5.68858 22.6644 5.70528ZM10.34 24.2619C10.1333 24.2368 9.92244 24.3329 9.81178 24.525L9.2773 25.452C9.12907 25.7067 9.21676 26.0324 9.47147 26.1806C9.55498 26.2286 9.64685 26.2537 9.73871 26.2537C9.92244 26.2537 10.102 26.1576 10.2001 25.9864L10.7346 25.0594C10.8828 24.8047 10.7972 24.4769 10.5404 24.3287C10.4757 24.2932 10.4068 24.2702 10.34 24.2619ZM20.6288 24.2619C20.5599 24.2702 20.4931 24.2932 20.4284 24.3287C20.1716 24.4769 20.086 24.8047 20.2342 25.0615L20.7687 25.9864C20.8668 26.1576 21.0464 26.2537 21.2301 26.2537C21.322 26.2537 21.4138 26.2307 21.4973 26.1806C21.7541 26.0345 21.8397 25.7067 21.6915 25.452L21.157 24.527C21.0464 24.335 20.8355 24.2368 20.6288 24.2619ZM12.7118 25.3037C12.5072 25.3329 12.3276 25.4812 12.2692 25.6962L11.9936 26.7297C11.9163 27.0136 12.0875 27.3059 12.3715 27.3832C12.4174 27.3957 12.4654 27.402 12.5113 27.402C12.7473 27.402 12.9623 27.2433 13.027 27.0053L13.3026 25.9718C13.3799 25.6879 13.2108 25.3935 12.9268 25.3183C12.8537 25.2975 12.7807 25.2933 12.7118 25.3037ZM18.257 25.3037C18.1881 25.2933 18.1151 25.2975 18.042 25.3183C17.758 25.3935 17.5889 25.6879 17.6641 25.9718L17.9418 27.0053C18.0065 27.2433 18.2215 27.402 18.4575 27.402C18.5034 27.402 18.5493 27.3957 18.5973 27.3832C18.8813 27.3059 19.0504 27.0136 18.9752 26.7297L18.6996 25.6962C18.6412 25.4812 18.4616 25.3329 18.257 25.3037ZM15.4844 25.6545C15.19 25.6545 14.9499 25.8946 14.9499 26.189L14.9499 27.2579C14.9499 27.5523 15.19 27.7924 15.4844 27.7924C15.7788 27.7924 16.0189 27.5523 16.0189 27.2579L16.0189 26.189C16.0189 25.8946 15.7788 25.6545 15.4844 25.6545Z" fill="#000000" fill-rule="nonzero" opacity="1" stroke="none"/>
<path d="M15.4844-0.000742906C6.93685-0.000742906-0.015601 6.95171-0.015601 15.4993C-0.015601 24.0469 6.93685 30.9993 15.4844 30.9993C24.032 30.9993 30.9844 24.0469 30.9844 15.4993C30.9844 6.95171 24.032-0.000742906 15.4844-0.000742906ZM15.4844 1.06823C23.4411 1.06823 29.9154 7.54257 29.9154 15.4993C29.9154 23.456 23.4411 29.9303 15.4844 29.9303C7.52771 29.9303 1.05337 23.456 1.05337 15.4993C1.05337 7.54257 7.52771 1.06823 15.4844 1.06823ZM15.2506 3.21033C12.1 3.27297 9.04973 4.54863 6.7907 6.80556C4.46904 9.12931 3.1913 12.2152 3.1913 15.4993C3.1913 18.7834 4.46904 21.8692 6.7907 24.193C6.8951 24.2953 7.03289 24.3496 7.1686 24.3496C7.3064 24.3496 7.44419 24.2953 7.54858 24.193C7.75737 23.9821 7.75737 23.646 7.54858 23.4351C5.42736 21.316 4.26026 18.4974 4.26026 15.4993C4.26026 12.5012 5.42736 9.68258 7.54858 7.56344C7.97465 7.13701 8.43165 6.74905 8.91399 6.40135C11.3034 4.67897 14.3146 3.94459 17.2695 4.41709C17.5618 4.4672 17.8332 4.26468 17.8812 3.97448C17.9272 3.68218 17.7288 3.40659 17.4386 3.36066C16.7079 3.24374 15.9771 3.19363 15.2506 3.21033ZM19.5786 3.94733C19.3698 3.95569 19.1778 4.08722 19.1005 4.29391C18.9961 4.56951 19.136 4.8785 19.4116 4.98289C19.7937 5.12487 20.1716 5.2898 20.5348 5.47144C20.6121 5.51111 20.6935 5.5299 20.7749 5.5299C20.9712 5.5299 21.1591 5.42343 21.2531 5.23552C21.3867 4.97246 21.2802 4.65093 21.0171 4.51731C20.6184 4.31688 20.205 4.13733 19.7874 3.98074C19.7185 3.95569 19.6475 3.94525 19.5786 3.94733ZM22.6644 5.70528C22.5266 5.72198 22.3993 5.78879 22.3074 5.90571C22.1258 6.13746 22.1654 6.4736 22.3993 6.65524C22.7542 6.93501 23.0987 7.23983 23.4202 7.56344C25.5414 9.68258 26.7085 12.5012 26.7085 15.4993C26.7085 18.4974 25.5414 21.316 23.4202 23.4351C23.2114 23.646 23.2114 23.9821 23.4202 24.193C23.5246 24.2953 23.6624 24.3496 23.8002 24.3496C23.9359 24.3496 24.0737 24.2953 24.1781 24.193C26.4998 21.8692 27.7775 18.7834 27.7775 15.4993C27.7775 12.2152 26.4998 9.12931 24.1781 6.80556C23.8232 6.45272 23.4474 6.11867 23.059 5.81385C22.9421 5.72407 22.8001 5.68858 22.6644 5.70528ZM10.34 24.2619C10.1333 24.2368 9.92244 24.3329 9.81178 24.525L9.2773 25.452C9.12907 25.7067 9.21676 26.0324 9.47147 26.1806C9.55498 26.2286 9.64685 26.2537 9.73871 26.2537C9.92244 26.2537 10.102 26.1576 10.2001 25.9864L10.7346 25.0594C10.8828 24.8047 10.7972 24.4769 10.5404 24.3287C10.4757 24.2932 10.4068 24.2702 10.34 24.2619ZM20.6288 24.2619C20.5599 24.2702 20.4931 24.2932 20.4284 24.3287C20.1716 24.4769 20.086 24.8047 20.2342 25.0615L20.7687 25.9864C20.8668 26.1576 21.0464 26.2537 21.2301 26.2537C21.322 26.2537 21.4138 26.2307 21.4973 26.1806C21.7541 26.0345 21.8397 25.7067 21.6915 25.452L21.157 24.527C21.0464 24.335 20.8355 24.2368 20.6288 24.2619ZM12.7118 25.3037C12.5072 25.3329 12.3276 25.4812 12.2692 25.6962L11.9936 26.7297C11.9163 27.0136 12.0875 27.3059 12.3715 27.3832C12.4174 27.3957 12.4654 27.402 12.5113 27.402C12.7473 27.402 12.9623 27.2433 13.027 27.0053L13.3026 25.9718C13.3799 25.6879 13.2108 25.3935 12.9268 25.3183C12.8537 25.2975 12.7807 25.2933 12.7118 25.3037ZM18.257 25.3037C18.1881 25.2933 18.1151 25.2975 18.042 25.3183C17.758 25.3935 17.5889 25.6879 17.6641 25.9718L17.9418 27.0053C18.0065 27.2433 18.2215 27.402 18.4575 27.402C18.5034 27.402 18.5493 27.3957 18.5973 27.3832C18.8813 27.3059 19.0504 27.0136 18.9752 26.7297L18.6996 25.6962C18.6412 25.4812 18.4616 25.3329 18.257 25.3037ZM15.4844 25.6545C15.19 25.6545 14.9499 25.8946 14.9499 26.189L14.9499 27.2579C14.9499 27.5523 15.19 27.7924 15.4844 27.7924C15.7788 27.7924 16.0189 27.5523 16.0189 27.2579L16.0189 26.189C16.0189 25.8946 15.7788 25.6545 15.4844 25.6545Z" fill="#000000" fill-rule="nonzero" opacity="1" stroke="none"/>
</g>
<g id="Слой-1" vectornator:layerName="Слой 1">
<path d="M15.25 3.21875C12.0994 3.28139 9.04028 4.55557 6.78125 6.8125C4.45959 9.13625 3.1875 12.2159 3.1875 15.5C3.1875 18.7841 4.45959 21.8637 6.78125 24.1875C6.88565 24.2898 7.02054 24.3437 7.15625 24.3438C7.29405 24.3438 7.45811 24.2898 7.5625 24.1875C7.77129 23.9766 7.77131 23.6484 7.5625 23.4375C5.44128 21.3184 4.25 18.4981 4.25 15.5C4.25 12.5019 5.44128 9.68164 7.5625 7.5625C7.98858 7.13608 8.42392 6.75396 8.90625 6.40625C11.2956 4.68386 14.3264 3.93375 17.2812 4.40625C17.5735 4.45636 17.827 4.25895 17.875 3.96875C17.921 3.67645 17.7277 3.42093 17.4375 3.375C16.7068 3.25808 15.9765 3.20205 15.25 3.21875ZM19.5938 3.9375C19.385 3.94586 19.1711 4.07456 19.0938 4.28125C18.9893 4.55685 19.1306 4.86436 19.4062 4.96875C19.7883 5.11073 20.1681 5.28711 20.5312 5.46875C20.6086 5.50842 20.6999 5.53125 20.7812 5.53125C20.9775 5.53125 21.156 5.43791 21.25 5.25C21.3836 4.98694 21.2943 4.66487 21.0312 4.53125C20.6326 4.33082 20.1989 4.12534 19.7812 3.96875C19.7124 3.9437 19.6627 3.93542 19.5938 3.9375ZM22.6562 5.71875C22.5184 5.73545 22.4044 5.78933 22.3125 5.90625C22.1309 6.138 22.1723 6.47461 22.4062 6.65625C22.7612 6.93602 23.0847 7.23889 23.4062 7.5625C25.5274 9.68164 26.7188 12.5019 26.7188 15.5C26.7188 18.4981 25.5274 21.3184 23.4062 23.4375C23.1974 23.6484 23.1974 23.9766 23.4062 24.1875C23.5106 24.2898 23.6747 24.3437 23.8125 24.3438C23.9482 24.3438 24.0831 24.2898 24.1875 24.1875C26.5092 21.8637 27.7812 18.7841 27.7812 15.5C27.7812 12.2159 26.5092 9.13625 24.1875 6.8125C23.8326 6.45966 23.4509 6.11732 23.0625 5.8125C22.9456 5.72272 22.7919 5.70205 22.6562 5.71875ZM10.3438 24.25C10.137 24.2249 9.92316 24.3391 9.8125 24.5312L9.28125 25.4375C9.13302 25.6922 9.21404 26.0393 9.46875 26.1875C9.55226 26.2355 9.65814 26.25 9.75 26.25C9.93373 26.25 10.0894 26.1712 10.1875 26L10.75 25.0625C10.8982 24.8078 10.7881 24.492 10.5312 24.3438C10.4665 24.3083 10.4105 24.2583 10.3438 24.25ZM20.625 24.25C20.5561 24.2583 20.5022 24.3083 20.4375 24.3438C20.1807 24.492 20.0706 24.8057 20.2188 25.0625L20.7812 26C20.8794 26.1712 21.0351 26.25 21.2188 26.25C21.3106 26.25 21.4165 26.2376 21.5 26.1875C21.7568 26.0414 21.8357 25.6922 21.6875 25.4375L21.1562 24.5312C21.0457 24.3392 20.8317 24.2249 20.625 24.25ZM12.7188 25.3125C12.5142 25.3417 12.3396 25.4725 12.2812 25.6875L12 26.7188C11.9227 27.0026 12.091 27.2977 12.375 27.375C12.4209 27.3875 12.4541 27.4063 12.5 27.4062C12.736 27.4062 12.9666 27.238 13.0312 27L13.3125 25.9688C13.3898 25.6849 13.2215 25.3877 12.9375 25.3125C12.8644 25.2917 12.7877 25.302 12.7188 25.3125ZM18.0312 25.3125C17.7472 25.3877 17.581 25.6849 17.6562 25.9688L17.9375 27C18.0022 27.238 18.2327 27.4063 18.4688 27.4062C18.5146 27.4062 18.5457 27.3875 18.5938 27.375C18.8778 27.2977 19.044 27.0027 18.9688 26.7188L18.6875 25.6875C18.6291 25.4725 18.4546 25.3417 18.25 25.3125C18.1811 25.3021 18.1043 25.2917 18.0312 25.3125ZM15.5 25.6562C15.2056 25.6562 14.9375 25.8931 14.9375 26.1875L14.9375 27.25C14.9375 27.5444 15.2056 27.7813 15.5 27.7813C15.7944 27.7813 16.0313 27.5444 16.0312 27.25L16.0312 26.1875C16.0312 25.8931 15.7944 25.6562 15.5 25.6562Z" fill="#000000" fill-rule="nonzero" opacity="1" stroke="none"/>
</g>
</svg>
